<?xml version="1.0" encoding="iso-8859-1"?>
<!-- Generator: Adobe Illustrator 19.0.0, SVG Export Plug-In . SVG Version: 6.00 Build 0)  -->
<svg xmlns="http://www.w3.org/2000/svg" xmlns:xlink="http://www.w3.org/1999/xlink" version="1.1" id="Capa_1" x="0px" y="0px" viewBox="0 0 396 396" style="enable-background:new 0 0 396 396;" xml:space="preserve" width="512px" height="512px">
<g>
	<g>
		<path d="M381.2,207.2c4.8,0,8.8-4,8.8-8.8V104c0-4.8-4-8.8-8.8-8.8h-82.4V8.8c0-4.8-4-8.8-8.8-8.8H106.8h-92C10,0,6,4,6,8.8v94.4    v95.2v94.4v94.4c0,4.8,4,8.8,8.8,8.8H198h183.2c4.8,0,8.8-4,8.8-8.8v-94.4c0-4.8-4-8.8-8.8-8.8h-82.4v-76.8H381.2z M115.6,17.6    h164.8v76.8H198h-82.4V17.6z M23.6,17.6h73.6v76.8H23.6V17.6z M23.6,112.8H106h82.4v76.8h-81.6H23.6V112.8z M23.6,207.2h73.6V284    H23.6V207.2z M188.4,379.2H23.6v-76.8H106h82.4V379.2z M115.6,284v-76.8H198h82.4V284H198H115.6z M371.6,302.4v76.8H206.8v-76.8    h82.4H371.6z M289.2,189.6h-82.4v-76.8h82.4h82.4v76.8H289.2z" fill="#e8b911"/>
	</g>
</g>
<g>
</g>
<g>
</g>
<g>
</g>
<g>
</g>
<g>
</g>
<g>
</g>
<g>
</g>
<g>
</g>
<g>
</g>
<g>
</g>
<g>
</g>
<g>
</g>
<g>
</g>
<g>
</g>
<g>
</g>
</svg>
