<?xml version="1.0" encoding="iso-8859-1"?>
<!-- Generator: Adobe Illustrator 19.0.0, SVG Export Plug-In . SVG Version: 6.00 Build 0)  -->
<svg xmlns="http://www.w3.org/2000/svg" xmlns:xlink="http://www.w3.org/1999/xlink" version="1.1" id="Capa_1" x="0px" y="0px" viewBox="0 0 512 512" style="enable-background:new 0 0 512 512;" xml:space="preserve" width="512px" height="512px">
<g>
	<g>
		<path d="M259.152,214.921c-12.113,0-21.969,9.855-21.969,21.969c0.001,12.114,9.856,21.97,21.969,21.97    c12.113,0,21.969-9.856,21.969-21.97C281.121,224.776,271.266,214.921,259.152,214.921z M259.152,243.859    c-3.843,0-6.969-3.127-6.969-6.97c0.001-3.842,3.127-6.969,6.969-6.969c3.843,0,6.969,3.126,6.969,6.969    C266.121,240.732,262.995,243.859,259.152,243.859z" fill="#009688"/>
	</g>
</g>
<g>
	<g>
		<path d="M213.906,159.597c-13.111,0-23.777,10.667-23.777,23.778c0,13.112,10.666,23.779,23.777,23.779    s23.777-10.667,23.777-23.779C237.683,170.264,227.017,159.597,213.906,159.597z M213.906,192.154    c-4.84,0-8.777-3.938-8.777-8.779c0-4.84,3.937-8.778,8.777-8.778s8.777,3.938,8.777,8.778    C222.683,188.216,218.745,192.154,213.906,192.154z" fill="#009688"/>
	</g>
</g>
<g>
	<g>
		<path d="M438.072,422.606H418c-4.143,0-7.5,3.358-7.5,7.5c0,4.142,3.357,7.5,7.5,7.5h17.572v4.414H230.131v-4.414h76.41    c6.893,0,12.5-5.607,12.5-12.5v-55.694h27.621v55.694c0,6.893,5.607,12.5,12.5,12.5H383c4.143,0,7.5-3.358,7.5-7.5    c0-4.142-3.357-7.5-7.5-7.5h-21.338v-55.694c0-4.432-2.325-8.322-5.813-10.543V242c0-4.142-3.357-7.5-7.5-7.5s-7.5,3.358-7.5,7.5    v112.412h-15.996V109.025h15.996V208c0,4.142,3.357,7.5,7.5,7.5s7.5-3.358,7.5-7.5V101.525v-44.43V17.833    C355.85,8,347.851,0,338.018,0h-10.332c-9.833,0-17.832,8-17.832,17.833v39.263v44.43V356.37    c-3.487,2.22-5.813,6.111-5.813,10.543v55.694h-28.906l0.375-5.927c13.033-2.151,23.008-13.494,23.008-27.127v-51.825    c3.752-3.212,6.143-7.973,6.143-13.288v-2.124c0-9.649-7.851-17.5-17.5-17.5h-10.912c-0.969-15.091-13.547-27.074-28.877-27.074    c-1.979,0-3.936,0.201-5.85,0.595c-4.47-13.483-17.226-23.263-32.135-23.263c-0.383,0-0.767,0.007-1.15,0.02    c-5.496-7.593-14.41-12.273-23.969-12.273c-10.595,0-20.22,5.713-25.448,14.536c-1.7-0.295-3.432-0.444-5.185-0.444    c-11.332,0-21.531,6.301-26.685,16.09c-16.878,3.143-30.448,15.726-35.271,31.813H78.928c-9.649,0-17.5,7.851-17.5,17.5v2.124    c0,5.376,2.441,10.19,6.269,13.402c-0.079,0.435-0.126,0.881-0.126,1.338v50.371c0,13.633,9.975,24.976,23.008,27.127    l5.165,81.623C96.229,505.983,102.64,512,110.336,512h327.736c6.893,0,12.5-5.607,12.5-12.5v-19.414v-25.565v-19.414    C450.572,428.214,444.965,422.606,438.072,422.606z M324.853,17.833c0-1.535,1.297-2.833,2.832-2.833h10.332    c1.535,0,2.832,1.297,2.832,2.833v76.193h-15.996V17.833z M283.518,389.553c0,4.917-2.862,9.168-7,11.208l3.723-58.82h3.277    V389.553z M132.753,287.343c2.991-0.243,5.55-2.245,6.504-5.09c2.075-6.184,7.854-10.339,14.378-10.339    c2.183,0,4.296,0.458,6.279,1.362c1.993,0.909,4.286,0.899,6.275-0.025c1.987-0.926,3.47-2.674,4.059-4.786    c1.746-6.266,7.511-10.642,14.02-10.642c5.636,0,10.817,3.306,13.202,8.423c1.456,3.126,4.852,4.857,8.245,4.191    c1.217-0.239,2.452-0.36,3.672-0.36c10.296,0,18.746,8.378,18.838,18.677c0.024,2.737,1.538,5.243,3.948,6.539    c2.411,1.296,5.334,1.177,7.632-0.312c2.256-1.463,4.872-2.236,7.566-2.236c7.053,0,12.885,5.269,13.803,12.074H107.696    C112.234,295.223,121.629,288.245,132.753,287.343z M82.57,389.553V341.94h3.277l3.723,58.82    C85.432,398.721,82.57,394.47,82.57,389.553z M100.877,341.941h115.121c4.143,0,7.5-3.358,7.5-7.5c0-4.142-3.357-7.5-7.5-7.5    H78.928c-1.355,0-2.5-1.145-2.5-2.5v-2.124c0-1.355,1.145-2.5,2.5-2.5H287.16c1.355,0,2.5,1.145,2.5,2.5v2.124    c0,1.355-1.145,2.5-2.5,2.5H251c-4.143,0-7.5,3.358-7.5,7.5c0,4.142,3.357,7.5,7.5,7.5h14.21l-3.805,60.112h-30.517    c-1.8-7.747-8.744-13.543-17.031-13.543H152.23c-8.287,0-15.232,5.796-17.031,13.543h-30.517L100.877,341.941z M216.357,406.009    v3.765c0,1.355-1.145,2.5-2.5,2.5H152.23c-1.355,0-2.5-1.145-2.5-2.5v-3.765c0-1.355,1.145-2.5,2.5-2.5h61.627    C215.212,403.509,216.357,404.654,216.357,406.009z M215.131,497h-104.44l-0.489-7.726h104.929V497z M215.131,435.106v19.414    v19.754H109.253l-3.621-57.222h30.704c2.77,6.022,8.844,10.222,15.895,10.222h61.627c1.596,0,3.135-0.233,4.604-0.635    C216.401,428.869,215.131,431.838,215.131,435.106z M225.501,422.801c1.785-1.597,3.238-3.548,4.251-5.749h30.704l-0.352,5.554    h-32.473C226.903,422.606,226.195,422.682,225.501,422.801z M435.572,497H230.131v-39.979h205.441V497z" fill="#009688"/>
	</g>
</g>
<g>
	<g>
		<path d="M220.303,285.769c-4.264-7.214-12.112-11.695-20.483-11.696c-8.373,0-16.222,4.482-20.483,11.698    c-2.106,3.567-0.923,8.165,2.645,10.272c1.196,0.707,2.51,1.043,3.807,1.043c2.565,0,5.065-1.317,6.465-3.687    c1.6-2.709,4.429-4.326,7.566-4.326c3.139,0,5.969,1.618,7.569,4.327c2.108,3.566,6.705,4.75,10.273,2.641    C221.227,293.934,222.41,289.335,220.303,285.769z" fill="#009688"/>
	</g>
</g>
<g>
	<g>
		<path d="M171.588,289.9c-3.443-5.822-9.779-9.44-16.539-9.441c-6.758,0-13.094,3.619-16.537,9.443    c-2.107,3.566-0.925,8.165,2.641,10.272c1.198,0.708,2.512,1.044,3.81,1.044c2.564,0,5.064-1.317,6.464-3.685    c0.768-1.299,2.122-2.075,3.622-2.075c1.503,0,2.858,0.776,3.627,2.075c2.108,3.567,6.71,4.748,10.272,2.64    C172.513,298.065,173.696,293.466,171.588,289.9z" fill="#009688"/>
	</g>
</g>
<g>
</g>
<g>
</g>
<g>
</g>
<g>
</g>
<g>
</g>
<g>
</g>
<g>
</g>
<g>
</g>
<g>
</g>
<g>
</g>
<g>
</g>
<g>
</g>
<g>
</g>
<g>
</g>
<g>
</g>
</svg>
