<?xml version="1.0" encoding="iso-8859-1"?>
<!-- Generator: Adobe Illustrator 19.0.0, SVG Export Plug-In . SVG Version: 6.00 Build 0)  -->
<svg xmlns="http://www.w3.org/2000/svg" xmlns:xlink="http://www.w3.org/1999/xlink" version="1.1" id="Layer_1" x="0px" y="0px" viewBox="0 0 430.08 430.08" style="enable-background:new 0 0 430.08 430.08;" xml:space="preserve" width="512px" height="512px">
<g>
	<g>
		<g>
			<path d="M215.04,0C99.328,0,5.12,96.256,5.12,215.04s94.208,215.04,209.92,215.04s209.92-96.256,209.92-215.04     S330.752,0,215.04,0z M265.728,379.904c-1.024,0.512-2.048,0.512-3.072,0.512c-4.608,0-9.216-3.584-10.24-8.192l-5.12-26.112     c-0.686-3.089-2.757-5.711-5.588-7.109l8.148-66.619c14.848-9.728,25.088-24.576,29.184-41.472l58.287-23.604     c1.859,2.269,4.693,3.636,7.76,3.636h0.512l27.136-1.536h0.512c5.632,0,10.752,5.12,10.24,10.752     C378.88,297.472,330.752,358.912,265.728,379.904z M272.384,222.72c-1.536,0.512-2.56,2.048-3.072,3.584     c-3.072,15.872-12.8,30.208-26.624,38.4c-1.536,0.512-2.56,2.048-2.56,3.584l-8.704,69.632h-32.828l-8.644-69.632     c-0.512-1.536-1.024-2.56-2.56-3.584c-14.336-8.192-24.064-22.528-27.136-38.912c-0.512-1.536-1.536-3.072-3.072-3.584     l-59.932-24.452l8.848-32.316l66.955,9.152c1.536,0,3.072-0.512,4.096-1.536c10.24-9.728,23.552-15.36,37.888-15.36     s28.16,5.632,38.4,15.872c1.024,1.024,2.048,1.536,3.584,1.536c0,0,0.512,0,0.512-0.512l67.466-9.156l8.87,32.396L272.384,222.72     z M86.016,210.944c3.095,0,5.954-1.39,7.812-3.697l56.7,23.153c4.096,16.896,14.336,31.744,29.184,41.472l8.546,66.944     c-3.035,1.341-5.268,4.064-5.986,7.296l-5.12,26.112c-1.024,5.12-5.12,8.192-10.24,8.192c-1.024,0-2.048,0-3.072-0.512     c-65.024-20.992-113.152-81.92-117.248-160.256c-0.512-6.144,4.608-10.752,10.24-10.752h0.512l28.16,2.048H86.016z      M328.704,148.48c-2.97,1.32-4.869,3.919-5.438,6.832l-64.706,9.04c-12.288-10.752-27.648-16.896-43.52-16.896     c-16.384,0-31.232,6.144-43.52,16.896l-64.042-9.081c-0.671-2.897-2.45-5.477-5.078-6.791l-25.088-12.288     c-5.632-2.56-7.168-9.728-4.096-14.848c30.208-47.616,82.432-79.36,141.824-79.36s112.128,31.744,141.824,79.36     c3.072,5.12,1.024,11.776-4.096,14.848L328.704,148.48z M215.04,31.744c-3.43,0-6.843,0.113-10.24,0.31V10.506     c3.392-0.176,6.806-0.266,10.24-0.266s6.848,0.089,10.24,0.266v21.549C221.884,31.858,218.471,31.744,215.04,31.744z      M215.04,419.84c-110.08,0-199.68-91.648-199.68-204.8c0-107.84,81.385-196.148,184.32-204.201v21.589     C144.745,37.204,94.975,67.44,64.512,115.712c-3.072,5.12-4.096,10.752-2.56,16.384c1.536,5.632,5.632,10.24,10.752,12.8     l25.088,12.288l-11.457,41.843c-0.183,0.382-0.305,0.771-0.367,1.162l-28.112-2.044c-0.512,0-1.024,0-1.536,0     c-5.211,0-10.418,2.194-14.006,5.766c0.254-4.482,0.646-8.964,1.206-13.446c0.512-1.536-0.512-3.072-2.048-3.072     c-1.536-0.512-3.072,0.512-3.072,2.048c-0.919,7.353-1.403,15.1-1.497,22.538c-0.94,2.603-1.317,5.393-1.063,8.182     c5.12,79.872,54.272,146.432,125.44,169.472c2.048,0.512,4.096,1.024,6.144,1.024c9.728,0,18.432-7.168,19.968-16.384     l5.077-25.89c0.497,0.178,1.023,0.29,1.579,0.29c0,0,0.512,0,0.512-0.512h42.496l5.12,26.112c1.263,6,4.869,10.825,9.725,13.647     c-5.398,1.18-10.864,2.088-16.381,2.737c-1.024,0.512-2.048,1.536-2.048,3.072c0,1.024,1.536,2.048,2.56,2.048     c8.736-0.998,17.35-2.732,25.842-5.132c0.091,0.001,0.179,0.012,0.27,0.012c2.048,0,4.096-0.512,6.144-1.024     c71.68-23.04,120.832-89.088,125.44-168.96c0.512-5.632-1.536-11.264-5.632-15.36c-4.096-4.096-9.216-6.656-14.848-6.656     c-0.512,0-1.024,0-1.536,0l-27.136,1.536l-10.762-39.304c0.106-0.553,0.118-1.115,0.01-1.656c0-0.837-0.234-1.594-0.617-2.247     l23.657-11.577c5.12-2.56,9.216-7.168,10.752-12.8c0.043-0.158,0.077-0.318,0.116-0.477c4.454,8.569,8.218,17.474,11.148,26.589     c0.512,1.024,1.536,1.536,2.56,1.536c0.512,0,0.512,0,1.024,0c1.024-0.512,2.048-1.536,1.536-3.072     c-4.459-12.93-10.084-25.083-16.873-36.798c-0.527-1.476-1.217-2.88-2.071-4.162C335.51,67.918,285.768,37.245,230.4,32.429     v-21.59C333.335,18.892,414.72,107.2,414.72,215.04C414.72,328.192,325.12,419.84,215.04,419.84z" fill="#e8b911"/>
			<path d="M235.008,215.552c0-10.752-9.216-19.968-19.968-19.968s-19.968,9.216-19.968,19.968s8.704,19.968,19.968,19.968     C226.304,235.52,235.008,226.304,235.008,215.552z M215.04,231.936c-8.704,0-15.872-7.168-15.872-16.384     c0-8.704,7.168-16.384,15.872-16.384s15.872,7.168,15.872,16.384S223.744,231.936,215.04,231.936z" fill="#e8b911"/>
			<path d="M201.216,239.616l-0.512-0.512c-3.584-2.56-8.192-1.024-10.24,2.56c-2.56,4.096-1.024,8.704,2.56,10.752l0.512,0.512     c1.536,0.512,2.56,1.024,4.096,1.024c2.56,0,5.12-1.536,6.144-3.584C206.336,246.272,204.8,241.664,201.216,239.616z" fill="#e8b911"/>
			<path d="M197.12,192c1.536,0,3.072-0.512,4.096-1.024l0.512-0.512c3.584-2.56,4.608-7.168,2.56-10.752     c-2.56-3.584-7.168-4.608-10.752-2.56l-0.512,0.512c-3.584,2.56-4.608,7.168-2.56,10.752C192,190.464,194.56,192,197.12,192z" fill="#e8b911"/>
			<path d="M228.864,190.976c1.536,0.512,2.56,1.024,4.096,1.024c2.56,0,5.12-1.536,6.144-3.584     c2.048-4.096,1.024-8.704-2.56-10.752l-0.512-0.512c-3.584-2.048-8.192-0.512-10.24,3.072     C223.744,183.808,225.28,188.928,228.864,190.976z" fill="#e8b911"/>
			<path d="M250.368,206.336c-4.096,0-7.68,3.584-7.68,7.68c0,0.512,0,1.024,0,1.024c0,4.608,3.584,7.68,7.68,7.68     s7.68-3.584,7.68-8.192c0-0.512,0-0.512,0-0.512C258.048,209.92,254.464,206.336,250.368,206.336z" fill="#e8b911"/>
			<path d="M179.712,206.848c-4.096,0-7.68,3.584-7.68,7.68v1.024c0,4.096,3.584,7.68,7.68,7.68c4.608,0,7.68-3.584,7.68-8.192     v-0.512C187.392,210.432,183.808,206.848,179.712,206.848z" fill="#e8b911"/>
			<path d="M228.864,239.104l-0.512,0.512c-3.584,2.048-4.608,6.656-2.56,10.24c1.536,2.048,4.096,3.584,6.656,3.584     c1.536,0,3.072,0,4.608-1.024c3.584-2.56,4.608-7.168,2.56-10.752C237.056,238.08,232.448,237.056,228.864,239.104z" fill="#e8b911"/>
			<path d="M45.568,168.96h0.512c1.024,0,2.048-1.024,2.56-1.536l0.512-1.536c0.512-1.024,0-2.56-1.536-3.072     c-1.024-0.512-2.56,0-3.072,1.536l-0.512,1.536C43.52,166.912,44.032,168.448,45.568,168.96z" fill="#e8b911"/>
			<path d="M42.496,183.808c1.536,0,2.56-1.024,2.56-2.56s0.512-3.584,1.024-5.632c0-1.536-0.512-2.56-2.048-3.072     c-1.536,0-2.56,0.512-3.072,2.048c0,2.048-0.512,4.096-1.024,6.144C39.936,182.272,40.448,183.296,42.496,183.808z" fill="#e8b911"/>
			<path d="M197.632,390.656l-2.56-0.512c-1.536-0.512-3.072,0.512-3.072,2.048c-0.512,1.536,0.512,3.072,2.048,3.072l3.072,0.512     c1.536,0,2.56-0.512,2.56-2.56C200.192,392.192,199.168,390.656,197.632,390.656z" fill="#e8b911"/>
			<path d="M219.648,391.68c-4.096,0-8.192,0-12.288,0c-1.536,0-2.56,1.024-2.56,2.56s1.024,2.56,2.56,2.56c2.56,0,5.12,0,7.68,0     c1.536,0,3.072,0,4.608,0c1.536,0,2.56-1.024,2.56-2.56S221.184,391.68,219.648,391.68z" fill="#e8b911"/>
			<path d="M387.584,168.448c-0.512-1.536-1.536-2.56-3.072-2.048c-1.536,0.512-2.56,1.536-2.048,3.072     c0.512,2.048,1.024,4.608,1.536,6.656c0.512,1.024,1.536,2.048,2.56,2.048c0,0,0,0,0.512,0c1.536-0.512,2.56-1.536,2.048-3.072     C388.608,173.056,388.096,170.496,387.584,168.448z" fill="#e8b911"/>
		</g>
	</g>
</g>
<g>
</g>
<g>
</g>
<g>
</g>
<g>
</g>
<g>
</g>
<g>
</g>
<g>
</g>
<g>
</g>
<g>
</g>
<g>
</g>
<g>
</g>
<g>
</g>
<g>
</g>
<g>
</g>
<g>
</g>
</svg>
