<?xml version="1.0" encoding="iso-8859-1"?>
<!-- Generator: Adobe Illustrator 17.1.0, SVG Export Plug-In . SVG Version: 6.00 Build 0)  -->
<!DOCTYPE svg PUBLIC "-//W3C//DTD SVG 1.1//EN" "http://www.w3.org/Graphics/SVG/1.1/DTD/svg11.dtd">
<svg xmlns="http://www.w3.org/2000/svg" xmlns:xlink="http://www.w3.org/1999/xlink" version="1.1" id="Capa_1" x="0px" y="0px" viewBox="0 0 197.794 197.794" style="enable-background:new 0 0 197.794 197.794;" xml:space="preserve" width="512px" height="512px">
<path d="M154.73,197.794c-12.616,0-23.026-9.62-24.282-21.909h-38.55c-1.256,12.29-11.667,21.909-24.282,21.909  c-13.459,0-24.409-10.95-24.409-24.409s10.95-24.409,24.409-24.409c7.731,0,14.635,3.613,19.11,9.239l19.803-12.646L66.27,119.86  c-0.236-0.151-0.439-0.335-0.605-0.542c-18.419-5.997-31.767-23.332-31.767-43.726V61.507l-15.23-24.04  c-0.478,0.091-0.971,0.139-1.475,0.139c-4.327,0-7.847-3.52-7.847-7.847c0-4.327,3.52-7.847,7.847-7.847s7.847,3.52,7.847,7.847  c0,2.014-0.762,3.853-2.014,5.244l14.749,23.279h69.103c1.015-5.274,5.181-9.441,10.456-10.456V2.5c0-1.381,1.119-2.5,2.5-2.5h7.836  c9.305,0,18.129,2.102,26.021,5.856c0.191,0.064,0.376,0.153,0.553,0.267c10.807,5.276,19.831,13.667,25.89,23.993  c0.097,0.126,0.183,0.263,0.256,0.411c0.025,0.05,0.048,0.1,0.069,0.15c5.085,8.88,7.992,19.158,7.992,30.104l0,0c0,0,0,0,0,0  v14.811c0,20.395-13.348,37.729-31.767,43.726c-0.167,0.208-0.369,0.392-0.605,0.542l-40.258,25.709l19.803,12.646  c4.476-5.626,11.379-9.239,19.11-9.239c13.459,0,24.409,10.95,24.409,24.409S168.19,197.794,154.73,197.794z M135.481,175.885  c1.231,9.525,9.394,16.909,19.249,16.909c10.702,0,19.409-8.707,19.409-19.409s-8.707-19.409-19.409-19.409  c-5.962,0-11.306,2.703-14.869,6.947l16.215,10.355c0.936,0.598,1.365,1.742,1.054,2.808c-0.312,1.066-1.289,1.799-2.4,1.799  H135.481z M67.616,153.976c-10.702,0-19.409,8.707-19.409,19.409s8.707,19.409,19.409,19.409c9.855,0,18.018-7.384,19.249-16.909  H67.616c-1.111,0-2.088-0.733-2.4-1.799c-0.311-1.066,0.118-2.21,1.054-2.808l16.215-10.355  C78.922,156.679,73.578,153.976,67.616,153.976z M135.481,170.885h10.689l-9.007-5.751  C136.322,166.918,135.744,168.854,135.481,170.885z M91.898,170.885h38.55c0.308-3.016,1.167-5.869,2.475-8.46l-21.75-13.89  l-21.75,13.89C90.731,165.016,91.59,167.869,91.898,170.885z M76.176,170.885h10.689c-0.263-2.031-0.84-3.966-1.683-5.751  L76.176,170.885z M78.177,121.532l32.996,21.071l32.996-21.071c-0.562,0.021-1.124,0.031-1.69,0.031H79.868  C79.301,121.563,78.739,121.552,78.177,121.532z M38.897,63.281v12.311c0,22.591,18.379,40.971,40.97,40.971h62.611  c22.591,0,40.97-18.379,40.97-40.971V63.281h-50.662c-1.171,6.084-6.535,10.693-12.956,10.693c-6.42,0-11.785-4.609-12.956-10.693  H38.897z M119.831,52.587c-4.518,0-8.193,3.676-8.193,8.194s3.675,8.193,8.193,8.193s8.194-3.675,8.194-8.193  c0-1.278-0.294-2.489-0.818-3.568c-0.031-0.052-0.061-0.106-0.088-0.162c-0.02-0.041-0.039-0.081-0.057-0.122  c-0.76-1.421-1.928-2.594-3.345-3.361c-0.078-0.036-0.155-0.075-0.23-0.12C122.385,52.897,121.144,52.587,119.831,52.587z   M132.787,58.281h50.606c-0.372-8.386-2.603-16.294-6.292-23.326l-44.583,22.2C132.624,57.524,132.714,57.899,132.787,58.281z   M128.199,50.587c0.76,0.625,1.449,1.333,2.054,2.111l44.325-22.071c-5.177-8.026-12.359-14.646-20.829-19.146L128.199,50.587z   M122.331,47.825c0.497,0.095,0.983,0.219,1.458,0.369l25.4-38.875C142.564,6.538,135.291,5,127.667,5h-5.336V47.825z   M17.192,26.912c-1.57,0-2.847,1.277-2.847,2.847s1.277,2.847,2.847,2.847s2.847-1.277,2.847-2.847S18.762,26.912,17.192,26.912z" fill="#009688"/>
<g>
</g>
<g>
</g>
<g>
</g>
<g>
</g>
<g>
</g>
<g>
</g>
<g>
</g>
<g>
</g>
<g>
</g>
<g>
</g>
<g>
</g>
<g>
</g>
<g>
</g>
<g>
</g>
<g>
</g>
</svg>
