<?xml version="1.0" encoding="iso-8859-1"?>
<!-- Generator: Adobe Illustrator 19.0.0, SVG Export Plug-In . SVG Version: 6.00 Build 0)  -->
<svg xmlns="http://www.w3.org/2000/svg" xmlns:xlink="http://www.w3.org/1999/xlink" version="1.1" id="Layer_1" x="0px" y="0px" viewBox="0 0 512 512" style="enable-background:new 0 0 512 512;" xml:space="preserve" width="512px" height="512px">
<g>
	<g>
		<path d="M506.816,268.181l-145.984-87.595l18.219-11.584c3.072-1.963,4.928-5.355,4.928-9.003s-1.856-7.04-4.928-9.003    L261.718,76.331c-3.499-2.219-7.957-2.219-11.456,0l-117.333,74.667C129.856,152.96,128,156.352,128,160s1.856,7.04,4.928,9.003    l18.219,11.605L5.184,268.181c-3.2,1.92-5.184,5.376-5.184,9.109c-0.021,3.733,1.92,7.211,5.12,9.152l245.333,149.333    c1.707,1.045,3.627,1.557,5.547,1.557c1.92,0,3.84-0.512,5.547-1.557L506.88,286.443c3.2-1.963,5.12-5.419,5.12-9.152    C511.979,273.557,510.016,270.101,506.816,268.181z M256,97.984L353.472,160L256,222.016L158.528,160L256,97.984z     M171.264,193.408l78.997,50.261c1.749,1.109,3.755,1.664,5.739,1.664c1.984,0,3.989-0.555,5.717-1.664l78.997-50.283    l14.059,8.448L256,264.704l-98.795-62.869L171.264,193.408z M31.296,277.355l105.472-63.253l99.371,63.232l-100.181,63.744    L31.296,277.355z M256,414.165l-99.733-60.715L256,289.984l99.733,63.467L256,414.165z M376.043,341.099l-100.181-63.765    l99.371-63.232l105.472,63.275L376.043,341.099z" fill="#009688"/>
	</g>
</g>
<g>
</g>
<g>
</g>
<g>
</g>
<g>
</g>
<g>
</g>
<g>
</g>
<g>
</g>
<g>
</g>
<g>
</g>
<g>
</g>
<g>
</g>
<g>
</g>
<g>
</g>
<g>
</g>
<g>
</g>
</svg>
