<?xml version="1.0" encoding="iso-8859-1"?>
<!-- Generator: Adobe Illustrator 19.0.0, SVG Export Plug-In . SVG Version: 6.00 Build 0)  -->
<svg xmlns="http://www.w3.org/2000/svg" xmlns:xlink="http://www.w3.org/1999/xlink" version="1.1" id="Layer_1" x="0px" y="0px" viewBox="0 0 512 512" style="enable-background:new 0 0 512 512;" xml:space="preserve" width="512px" height="512px">
<g>
	<g>
		<path d="M94.161,105.931v147.126h323.678V105.931H94.161z M400.184,235.402H111.816V123.586h288.368V235.402z" fill="#009688"/>
	</g>
</g>
<g>
	<g>
		<path d="M464.92,88.276V11.77H47.08v76.506H0v158.897h47.08v173.609c0,43.808,35.64,79.448,79.448,79.448h258.943    c43.808,0,79.448-35.64,79.448-79.448V247.172H512V88.276H464.92z M47.08,229.517H17.655V105.931H47.08V229.517z M447.264,420.782    c0,34.073-27.721,61.793-61.793,61.793H126.529c-34.072,0-61.793-27.72-61.793-61.793V76.506h382.529V420.782z M447.264,58.851    H64.736V29.425h382.529V58.851z M494.345,229.517H464.92V105.931h29.425V229.517z" fill="#009688"/>
	</g>
</g>
<g>
	<g>
		<rect x="91.218" y="276.598" width="329.563" height="17.655" fill="#009688"/>
	</g>
</g>
<g>
	<g>
		<path d="M105.931,420.782v-17.655H88.276v17.655c0,1.004,0.159,10.067,5.671,19.255c5.201,8.666,16.096,18.998,38.467,18.998    v-17.655C107.613,441.379,106.002,424.149,105.931,420.782z" fill="#009688"/>
	</g>
</g>
<g>
	<g>
		<path d="M406.069,403.126l0.001,17.568c-0.072,3.455-1.683,20.685-26.484,20.685v17.655c22.371,0,33.266-10.332,38.467-18.998    c5.513-9.188,5.671-18.251,5.671-19.255v-17.655H406.069z" fill="#009688"/>
	</g>
</g>
<g>
	<g>
		<polygon points="129.471,141.241 129.471,185.379 147.126,185.379 147.126,158.897 185.379,158.897 185.379,141.241   " fill="#009688"/>
	</g>
</g>
<g>
</g>
<g>
</g>
<g>
</g>
<g>
</g>
<g>
</g>
<g>
</g>
<g>
</g>
<g>
</g>
<g>
</g>
<g>
</g>
<g>
</g>
<g>
</g>
<g>
</g>
<g>
</g>
<g>
</g>
</svg>
